<svg width="190" height="36" viewBox="0 0 190 36" fill="none" xmlns="http://www.w3.org/2000/svg">
<path d="M59.592 16.688V12.464H61.824C63.456 12.464 64.152 13.28 64.152 14.576C64.152 15.872 63.456 16.688 61.824 16.688H59.592ZM68.328 14.576C68.328 11.48 66.264 9.152 62.136 9.152H55.488V26H59.592V19.952H62.136C66.432 19.952 68.328 17.36 68.328 14.576ZM69.7486 19.28C69.7486 23.504 72.3646 26.192 75.6286 26.192C77.6206 26.192 79.0366 25.28 79.7806 24.104V26H83.8846V12.608H79.7806V14.504C79.0606 13.328 77.6446 12.416 75.6526 12.416C72.3646 12.416 69.7486 15.056 69.7486 19.28ZM79.7806 19.304C79.7806 21.44 78.4126 22.616 76.8526 22.616C75.3166 22.616 73.9246 21.416 73.9246 19.28C73.9246 17.144 75.3166 15.992 76.8526 15.992C78.4126 15.992 79.7806 17.168 79.7806 19.304ZM93.1216 20.984L90.0256 12.608H85.4416L90.8896 25.544L87.8176 32.36H92.2336L100.634 12.608H96.1936L93.1216 20.984ZM115.322 19.304C115.322 15.056 112.298 12.416 108.362 12.416C104.45 12.416 101.402 15.056 101.402 19.304C101.402 23.552 104.378 26.192 108.314 26.192C112.25 26.192 115.322 23.552 115.322 19.304ZM105.578 19.304C105.578 17.024 106.874 15.968 108.362 15.968C109.802 15.968 111.146 17.024 111.146 19.304C111.146 21.56 109.778 22.64 108.314 22.64C106.826 22.64 105.578 21.56 105.578 19.304ZM136.055 26H140.135V18.176C140.135 14.576 137.999 12.464 134.687 12.464C132.743 12.464 131.063 13.544 130.175 14.96C129.263 13.352 127.631 12.464 125.615 12.464C123.863 12.464 122.495 13.208 121.703 14.288V12.608H117.599V26H121.703V18.728C121.703 16.976 122.711 16.016 124.271 16.016C125.831 16.016 126.839 16.976 126.839 18.728V26H130.919V18.728C130.919 16.976 131.927 16.016 133.487 16.016C135.047 16.016 136.055 16.976 136.055 18.728V26ZM142.289 19.28C142.289 23.504 144.905 26.192 148.169 26.192C150.161 26.192 151.577 25.28 152.321 24.104V26H156.425V12.608H152.321V14.504C151.601 13.328 150.185 12.416 148.193 12.416C144.905 12.416 142.289 15.056 142.289 19.28ZM152.321 19.304C152.321 21.44 150.953 22.616 149.393 22.616C147.857 22.616 146.465 21.416 146.465 19.28C146.465 17.144 147.857 15.992 149.393 15.992C150.953 15.992 152.321 17.168 152.321 19.304ZM160.142 21.344C160.142 24.824 162.086 26 164.87 26H166.958V22.52H165.494C164.582 22.52 164.246 22.184 164.246 21.392V16.016H166.934V12.608H164.246V9.344H160.142V12.608H158.51V16.016H160.142V21.344ZM169.344 26H173.448V12.608H169.344V26ZM171.408 11.216C172.848 11.216 173.832 10.232 173.832 9.008C173.832 7.76 172.848 6.776 171.408 6.776C169.944 6.776 168.96 7.76 168.96 9.008C168.96 10.232 169.944 11.216 171.408 11.216ZM175.706 19.304C175.706 23.552 178.49 26.192 182.426 26.192C185.786 26.192 188.162 24.248 188.858 21.152H184.49C184.13 22.136 183.482 22.688 182.354 22.688C180.89 22.688 179.882 21.536 179.882 19.304C179.882 17.072 180.89 15.92 182.354 15.92C183.482 15.92 184.154 16.52 184.49 17.456H188.858C188.162 14.264 185.786 12.416 182.426 12.416C178.49 12.416 175.706 15.08 175.706 19.304Z" fill="#122432"/>
<path d="M41.4153 7.93082C39.7011 6.21697 37.4195 5.18878 34.9999 5.03974C32.5805 4.8907 30.1899 5.6311 28.2783 7.12159C26.5327 5.76535 24.385 5.02893 22.1744 5.0285C19.9638 5.02808 17.816 5.76366 16.0698 7.11922C14.0783 5.55654 11.5654 4.81291 9.0442 5.04013C6.52301 5.26736 4.18361 6.4483 2.5036 8.34188C0.823587 10.2355 -0.0703353 12.6988 0.00432695 15.2292C0.0789893 17.7595 1.11661 20.1659 2.90534 21.9571L9.01411 28.0668C9.01884 28.0713 9.02357 28.0758 9.0289 28.0805C9.03422 28.0852 9.0357 28.0875 9.0391 28.0909C9.04546 28.0972 9.05226 28.103 9.05862 28.1093C9.15571 28.2054 9.25428 28.299 9.35433 28.3903C9.40579 28.4374 9.45783 28.4831 9.51018 28.5291C9.55266 28.5661 9.59534 28.6027 9.63822 28.639C11.3796 30.1144 13.5757 30.9459 15.8576 30.9932C18.1396 31.0406 20.3683 30.3013 22.1695 28.8993C24.0812 30.3898 26.4717 31.1302 28.8911 30.9812C31.3107 30.8321 33.5923 29.8039 35.3066 28.0901L41.4155 21.9813C43.276 20.1167 44.3208 17.5901 44.3208 14.9561C44.3208 12.322 43.2758 9.79547 41.4153 7.93082ZM22.1725 7.61617C23.6249 7.61524 25.0449 8.04523 26.2528 8.85169C27.4608 9.65816 28.4022 10.8048 28.9581 12.1466C29.5141 13.4884 29.6594 14.965 29.3758 16.3894C29.0922 17.8138 28.3924 19.1221 27.365 20.1486L22.1725 25.341L16.9798 20.1486C15.9524 19.1221 15.2525 17.8138 14.969 16.3894C14.6854 14.9649 14.8307 13.4884 15.3867 12.1466C15.9426 10.8048 16.8842 9.65808 18.092 8.85163C19.3 8.04518 20.7201 7.61521 22.1725 7.61617ZM8.72002 21.0651C8.71737 20.1003 8.90613 19.1447 9.27533 18.2534C9.64454 17.3621 10.1869 16.5529 10.8709 15.8726L12.2529 14.4906C12.186 15.872 12.409 17.2521 12.9074 18.5422C13.4059 19.8322 14.1688 21.0037 15.1471 21.9813L20.2335 27.0677C19.1363 27.8361 17.8494 28.2887 16.5127 28.3759C15.1763 28.4632 13.8413 28.1819 12.6536 27.5627C11.4659 26.9433 10.471 26.01 9.77728 24.8641C9.08362 23.7184 8.7178 22.4041 8.71973 21.0646L8.72002 21.0651ZM4.73775 20.1242C3.438 18.8248 2.67285 17.0852 2.59344 15.249C2.51402 13.4128 3.12611 11.6136 4.3088 10.2068C5.49149 8.79999 7.15879 7.88788 8.9813 7.65064C10.8038 7.4134 12.6491 7.8683 14.1525 8.92546L9.03821 14.0397C8.11275 14.9602 7.37905 16.055 6.87957 17.2609C6.3801 18.4668 6.12477 19.7598 6.12836 21.0651C6.12836 21.2191 6.13195 21.3726 6.13915 21.5257L4.73775 20.1242ZM28.2817 28.4082C26.7814 28.4117 25.3165 27.9522 24.0871 27.0922L29.1984 21.9813C30.1768 21.0037 30.9396 19.8322 31.438 18.5422C31.9364 17.2521 32.1594 15.872 32.0926 14.4906L33.4746 15.8726C34.5016 16.8996 35.2009 18.2081 35.4841 19.6325C35.7676 21.0569 35.6221 22.5335 35.0662 23.8753C34.5104 25.2171 33.5691 26.3639 32.3615 27.1707C31.1538 27.9776 29.7341 28.4082 28.2817 28.4082ZM39.5829 20.1486L38.2059 21.5257C38.2129 21.3728 38.2164 21.2193 38.2167 21.0651C38.2203 19.7598 37.9649 18.4668 37.4655 17.2609C36.966 16.055 36.2322 14.9602 35.3067 14.0397L30.196 8.92886C31.7021 7.88081 33.546 7.4346 35.3647 7.67808C37.1833 7.92155 38.845 8.83707 40.0224 10.2444C41.1998 11.6517 41.8076 13.4488 41.7263 15.2819C41.645 17.1149 40.8804 18.8511 39.5829 20.1486Z" fill="#54B9AB"/>
</svg>
